<mxfile host="app.diagrams.net" modified="2024-07-10T10:35:09.026Z" agent="Mozilla/5.0 (X11; Linux x86_64) AppleWebKit/537.36 (KHTML, like Gecko) Chrome/126.0.0.0 Safari/537.36" etag="JA2Jsc_5vPZPuO3a5uW3" version="24.6.4" type="github">
  <diagram name="Страница — 1" id="_D_H2cJI7fLIUQwC_H-b">
    <mxGraphModel dx="1643" dy="870" grid="1" gridSize="10" guides="1" tooltips="1" connect="1" arrows="1" fold="1" page="1" pageScale="1" pageWidth="827" pageHeight="1169" math="0" shadow="0">
      <root>
        <mxCell id="0" />
        <mxCell id="1" parent="0" />
        <mxCell id="74U5PATe-N2GAoOg3X0W-26" value="Kafka" style="html=1;outlineConnect=0;whiteSpace=wrap;fillColor=#AFFFAF;shape=mxgraph.archimate3.application;appType=event;archiType=rounded;fontSize=14;fontStyle=1;align=left;verticalAlign=top;" parent="1" vertex="1">
          <mxGeometry x="1140" y="1040" width="820" height="120" as="geometry" />
        </mxCell>
        <mxCell id="74U5PATe-N2GAoOg3X0W-27" value="" style="group" parent="1" vertex="1" connectable="0">
          <mxGeometry x="1840" y="120" width="410" height="180" as="geometry" />
        </mxCell>
        <mxCell id="74U5PATe-N2GAoOg3X0W-1" value="Сервис Товара" style="html=1;outlineConnect=0;whiteSpace=wrap;fillColor=#99ffff;shape=mxgraph.archimate3.application;appType=comp;archiType=square;verticalAlign=top;align=left;fontStyle=1;fontSize=14;" parent="74U5PATe-N2GAoOg3X0W-27" vertex="1">
          <mxGeometry width="410" height="180" as="geometry" />
        </mxCell>
        <mxCell id="74U5PATe-N2GAoOg3X0W-2" value="Продюсер" style="html=1;outlineConnect=0;whiteSpace=wrap;fillColor=#99ffff;shape=mxgraph.archimate3.application;appType=func;archiType=rounded;" parent="74U5PATe-N2GAoOg3X0W-27" vertex="1">
          <mxGeometry x="20" y="40" width="150" height="35" as="geometry" />
        </mxCell>
        <mxCell id="74U5PATe-N2GAoOg3X0W-3" value="REST API" style="html=1;outlineConnect=0;whiteSpace=wrap;fillColor=#99ffff;shape=mxgraph.archimate3.application;appType=func;archiType=rounded;" parent="74U5PATe-N2GAoOg3X0W-27" vertex="1">
          <mxGeometry x="20" y="90" width="150" height="35" as="geometry" />
        </mxCell>
        <mxCell id="74U5PATe-N2GAoOg3X0W-5" value="&lt;table cellpadding=&quot;0&quot; cellspacing=&quot;0&quot; style=&quot;font-size:1em;width:100%;height:100%;&quot;&gt;&lt;tbody&gt;&lt;tr style=&quot;height:20px;&quot;&gt;&lt;td align=&quot;center&quot;&gt;&lt;/td&gt;&lt;/tr&gt;&lt;tr&gt;&lt;td align=&quot;left&quot; valign=&quot;top&quot; style=&quot;padding:4px;&quot;&gt;Товар&lt;/td&gt;&lt;/tr&gt;&lt;/tbody&gt;&lt;/table&gt;" style="html=1;outlineConnect=0;whiteSpace=wrap;fillColor=#99ffff;shape=mxgraph.archimate3.businessObject;overflow=fill;" parent="74U5PATe-N2GAoOg3X0W-27" vertex="1">
          <mxGeometry x="220" y="120" width="170" height="40" as="geometry" />
        </mxCell>
        <mxCell id="74U5PATe-N2GAoOg3X0W-7" value="&lt;div style=&quot;&quot;&gt;&lt;span style=&quot;background-color: initial;&quot;&gt;Монолит PHP&lt;/span&gt;&lt;/div&gt;&lt;div style=&quot;&quot;&gt;&lt;span style=&quot;background-color: initial;&quot;&gt;Изменения сущностей очень редкие&lt;/span&gt;&lt;/div&gt;&lt;div style=&quot;&quot;&gt;Латентность не более 24 часов&lt;span style=&quot;background-color: initial;&quot;&gt;&lt;br&gt;&lt;/span&gt;&lt;/div&gt;" style="text;html=1;align=left;verticalAlign=middle;whiteSpace=wrap;rounded=0;" parent="74U5PATe-N2GAoOg3X0W-27" vertex="1">
          <mxGeometry x="220" y="35" width="150" height="75" as="geometry" />
        </mxCell>
        <mxCell id="74U5PATe-N2GAoOg3X0W-30" value="" style="group" parent="1" vertex="1" connectable="0">
          <mxGeometry x="1840" y="760" width="410" height="205" as="geometry" />
        </mxCell>
        <mxCell id="74U5PATe-N2GAoOg3X0W-20" value="Сервис наличия" style="html=1;outlineConnect=0;whiteSpace=wrap;fillColor=#99ffff;shape=mxgraph.archimate3.application;appType=comp;archiType=square;verticalAlign=top;align=left;fontStyle=1;fontSize=14;" parent="74U5PATe-N2GAoOg3X0W-30" vertex="1">
          <mxGeometry width="410" height="205" as="geometry" />
        </mxCell>
        <mxCell id="74U5PATe-N2GAoOg3X0W-21" value="Продюсер" style="html=1;outlineConnect=0;whiteSpace=wrap;fillColor=#99ffff;shape=mxgraph.archimate3.application;appType=func;archiType=rounded;" parent="74U5PATe-N2GAoOg3X0W-30" vertex="1">
          <mxGeometry x="20" y="40" width="150" height="35" as="geometry" />
        </mxCell>
        <mxCell id="74U5PATe-N2GAoOg3X0W-22" value="REST API" style="html=1;outlineConnect=0;whiteSpace=wrap;fillColor=#99ffff;shape=mxgraph.archimate3.application;appType=func;archiType=rounded;" parent="74U5PATe-N2GAoOg3X0W-30" vertex="1">
          <mxGeometry x="20" y="90" width="150" height="35" as="geometry" />
        </mxCell>
        <mxCell id="74U5PATe-N2GAoOg3X0W-23" value="&lt;table cellpadding=&quot;0&quot; cellspacing=&quot;0&quot; style=&quot;font-size:1em;width:100%;height:100%;&quot;&gt;&lt;tbody&gt;&lt;tr style=&quot;height:20px;&quot;&gt;&lt;td align=&quot;center&quot;&gt;&lt;/td&gt;&lt;/tr&gt;&lt;tr&gt;&lt;td align=&quot;left&quot; valign=&quot;top&quot; style=&quot;padding:4px;&quot;&gt;Наличие по офисам&lt;/td&gt;&lt;/tr&gt;&lt;/tbody&gt;&lt;/table&gt;" style="html=1;outlineConnect=0;whiteSpace=wrap;fillColor=#99ffff;shape=mxgraph.archimate3.businessObject;overflow=fill;" parent="74U5PATe-N2GAoOg3X0W-30" vertex="1">
          <mxGeometry x="221" y="120" width="170" height="40" as="geometry" />
        </mxCell>
        <mxCell id="74U5PATe-N2GAoOg3X0W-24" value="&lt;div style=&quot;&quot;&gt;Go&lt;/div&gt;&lt;div style=&quot;&quot;&gt;Изменения сущностей очень частые&lt;br&gt;Латентность не более 1 минуты&lt;/div&gt;" style="text;html=1;align=left;verticalAlign=middle;whiteSpace=wrap;rounded=0;" parent="74U5PATe-N2GAoOg3X0W-30" vertex="1">
          <mxGeometry x="220" y="35" width="160" height="75" as="geometry" />
        </mxCell>
        <mxCell id="74U5PATe-N2GAoOg3X0W-25" value="GRPC API" style="html=1;outlineConnect=0;whiteSpace=wrap;fillColor=#99ffff;shape=mxgraph.archimate3.application;appType=func;archiType=rounded;" parent="74U5PATe-N2GAoOg3X0W-30" vertex="1">
          <mxGeometry x="20" y="135" width="150" height="35" as="geometry" />
        </mxCell>
        <mxCell id="74U5PATe-N2GAoOg3X0W-28" value="" style="group" parent="1" vertex="1" connectable="0">
          <mxGeometry x="1840" y="330" width="410" height="180" as="geometry" />
        </mxCell>
        <mxCell id="74U5PATe-N2GAoOg3X0W-8" value="Сервис Маркетинга" style="html=1;outlineConnect=0;whiteSpace=wrap;fillColor=#99ffff;shape=mxgraph.archimate3.application;appType=comp;archiType=square;verticalAlign=top;align=left;fontStyle=1;fontSize=14;" parent="74U5PATe-N2GAoOg3X0W-28" vertex="1">
          <mxGeometry width="410" height="180" as="geometry" />
        </mxCell>
        <mxCell id="74U5PATe-N2GAoOg3X0W-9" value="Продюсер" style="html=1;outlineConnect=0;whiteSpace=wrap;fillColor=#99ffff;shape=mxgraph.archimate3.application;appType=func;archiType=rounded;" parent="74U5PATe-N2GAoOg3X0W-28" vertex="1">
          <mxGeometry x="20" y="40" width="150" height="35" as="geometry" />
        </mxCell>
        <mxCell id="74U5PATe-N2GAoOg3X0W-10" value="REST API" style="html=1;outlineConnect=0;whiteSpace=wrap;fillColor=#99ffff;shape=mxgraph.archimate3.application;appType=func;archiType=rounded;" parent="74U5PATe-N2GAoOg3X0W-28" vertex="1">
          <mxGeometry x="20" y="90" width="150" height="35" as="geometry" />
        </mxCell>
        <mxCell id="74U5PATe-N2GAoOg3X0W-11" value="&lt;table cellpadding=&quot;0&quot; cellspacing=&quot;0&quot; style=&quot;font-size:1em;width:100%;height:100%;&quot;&gt;&lt;tbody&gt;&lt;tr style=&quot;height:20px;&quot;&gt;&lt;td align=&quot;center&quot;&gt;&lt;/td&gt;&lt;/tr&gt;&lt;tr&gt;&lt;td align=&quot;left&quot; valign=&quot;top&quot; style=&quot;padding:4px;&quot;&gt;SEO информация о товаре&lt;/td&gt;&lt;/tr&gt;&lt;/tbody&gt;&lt;/table&gt;" style="html=1;outlineConnect=0;whiteSpace=wrap;fillColor=#99ffff;shape=mxgraph.archimate3.businessObject;overflow=fill;" parent="74U5PATe-N2GAoOg3X0W-28" vertex="1">
          <mxGeometry x="220" y="110" width="170" height="40" as="geometry" />
        </mxCell>
        <mxCell id="74U5PATe-N2GAoOg3X0W-12" value="&lt;div style=&quot;&quot;&gt;&lt;span style=&quot;background-color: initial;&quot;&gt;Монолит PHP&lt;/span&gt;&lt;/div&gt;&lt;div style=&quot;&quot;&gt;&lt;span style=&quot;background-color: initial;&quot;&gt;Изменения сущностей редкие&lt;/span&gt;&lt;/div&gt;&lt;div style=&quot;&quot;&gt;&lt;span style=&quot;background-color: initial;&quot;&gt;Латентность не более 24 часов&lt;/span&gt;&lt;/div&gt;" style="text;html=1;align=left;verticalAlign=middle;whiteSpace=wrap;rounded=0;" parent="74U5PATe-N2GAoOg3X0W-28" vertex="1">
          <mxGeometry x="220" y="30" width="150" height="70" as="geometry" />
        </mxCell>
        <mxCell id="74U5PATe-N2GAoOg3X0W-31" value="" style="group" parent="1" vertex="1" connectable="0">
          <mxGeometry x="1840" y="540" width="410" height="205" as="geometry" />
        </mxCell>
        <mxCell id="74U5PATe-N2GAoOg3X0W-13" value="Сервис цен" style="html=1;outlineConnect=0;whiteSpace=wrap;fillColor=#99ffff;shape=mxgraph.archimate3.application;appType=comp;archiType=square;verticalAlign=top;align=left;fontStyle=1;fontSize=14;" parent="74U5PATe-N2GAoOg3X0W-31" vertex="1">
          <mxGeometry width="410" height="205" as="geometry" />
        </mxCell>
        <mxCell id="74U5PATe-N2GAoOg3X0W-14" value="Продюсер" style="html=1;outlineConnect=0;whiteSpace=wrap;fillColor=#99ffff;shape=mxgraph.archimate3.application;appType=func;archiType=rounded;" parent="74U5PATe-N2GAoOg3X0W-31" vertex="1">
          <mxGeometry x="20" y="40" width="150" height="35" as="geometry" />
        </mxCell>
        <mxCell id="74U5PATe-N2GAoOg3X0W-15" value="REST API" style="html=1;outlineConnect=0;whiteSpace=wrap;fillColor=#99ffff;shape=mxgraph.archimate3.application;appType=func;archiType=rounded;" parent="74U5PATe-N2GAoOg3X0W-31" vertex="1">
          <mxGeometry x="20" y="90" width="150" height="35" as="geometry" />
        </mxCell>
        <mxCell id="74U5PATe-N2GAoOg3X0W-16" value="&lt;table cellpadding=&quot;0&quot; cellspacing=&quot;0&quot; style=&quot;font-size:1em;width:100%;height:100%;&quot;&gt;&lt;tbody&gt;&lt;tr style=&quot;height:20px;&quot;&gt;&lt;td align=&quot;center&quot;&gt;&lt;/td&gt;&lt;/tr&gt;&lt;tr&gt;&lt;td align=&quot;left&quot; valign=&quot;top&quot; style=&quot;padding:4px;&quot;&gt;Цены по регионам&lt;/td&gt;&lt;/tr&gt;&lt;/tbody&gt;&lt;/table&gt;" style="html=1;outlineConnect=0;whiteSpace=wrap;fillColor=#99ffff;shape=mxgraph.archimate3.businessObject;overflow=fill;" parent="74U5PATe-N2GAoOg3X0W-31" vertex="1">
          <mxGeometry x="221" y="125" width="170" height="40" as="geometry" />
        </mxCell>
        <mxCell id="74U5PATe-N2GAoOg3X0W-17" value="&lt;div style=&quot;&quot;&gt;Go&lt;/div&gt;&lt;div style=&quot;&quot;&gt;Изменения сущностей частые&lt;/div&gt;&lt;div style=&quot;&quot;&gt;Латентность не более 30 минут&lt;/div&gt;" style="text;html=1;align=left;verticalAlign=middle;whiteSpace=wrap;rounded=0;" parent="74U5PATe-N2GAoOg3X0W-31" vertex="1">
          <mxGeometry x="221" y="35" width="150" height="70" as="geometry" />
        </mxCell>
        <mxCell id="74U5PATe-N2GAoOg3X0W-18" value="GRPC API" style="html=1;outlineConnect=0;whiteSpace=wrap;fillColor=#99ffff;shape=mxgraph.archimate3.application;appType=func;archiType=rounded;" parent="74U5PATe-N2GAoOg3X0W-31" vertex="1">
          <mxGeometry x="20" y="135" width="150" height="35" as="geometry" />
        </mxCell>
        <mxCell id="74U5PATe-N2GAoOg3X0W-33" value="Товар" style="html=1;outlineConnect=0;whiteSpace=wrap;fillColor=#99ffff;shape=mxgraph.archimate3.event;" parent="1" vertex="1">
          <mxGeometry x="1260" y="1080" width="135" height="45" as="geometry" />
        </mxCell>
        <mxCell id="74U5PATe-N2GAoOg3X0W-34" value="SEO" style="html=1;outlineConnect=0;whiteSpace=wrap;fillColor=#99ffff;shape=mxgraph.archimate3.event;" parent="1" vertex="1">
          <mxGeometry x="1430" y="1080" width="135" height="45" as="geometry" />
        </mxCell>
        <mxCell id="74U5PATe-N2GAoOg3X0W-35" value="Цены" style="html=1;outlineConnect=0;whiteSpace=wrap;fillColor=#99ffff;shape=mxgraph.archimate3.event;" parent="1" vertex="1">
          <mxGeometry x="1600" y="1080" width="135" height="45" as="geometry" />
        </mxCell>
        <mxCell id="74U5PATe-N2GAoOg3X0W-36" value="Наличие" style="html=1;outlineConnect=0;whiteSpace=wrap;fillColor=#99ffff;shape=mxgraph.archimate3.event;" parent="1" vertex="1">
          <mxGeometry x="1760" y="1077.5" width="135" height="45" as="geometry" />
        </mxCell>
        <mxCell id="74U5PATe-N2GAoOg3X0W-37" style="edgeStyle=orthogonalEdgeStyle;rounded=0;orthogonalLoop=1;jettySize=auto;html=1;entryX=0;entryY=0;entryDx=56.25;entryDy=0;entryPerimeter=0;" parent="1" source="74U5PATe-N2GAoOg3X0W-2" target="74U5PATe-N2GAoOg3X0W-33" edge="1">
          <mxGeometry relative="1" as="geometry">
            <Array as="points">
              <mxPoint x="1316" y="178" />
            </Array>
          </mxGeometry>
        </mxCell>
        <mxCell id="74U5PATe-N2GAoOg3X0W-38" style="edgeStyle=orthogonalEdgeStyle;rounded=0;orthogonalLoop=1;jettySize=auto;html=1;" parent="1" source="74U5PATe-N2GAoOg3X0W-9" target="74U5PATe-N2GAoOg3X0W-34" edge="1">
          <mxGeometry relative="1" as="geometry">
            <Array as="points">
              <mxPoint x="1490" y="388" />
            </Array>
          </mxGeometry>
        </mxCell>
        <mxCell id="74U5PATe-N2GAoOg3X0W-39" style="edgeStyle=orthogonalEdgeStyle;rounded=0;orthogonalLoop=1;jettySize=auto;html=1;" parent="1" source="74U5PATe-N2GAoOg3X0W-14" target="74U5PATe-N2GAoOg3X0W-35" edge="1">
          <mxGeometry relative="1" as="geometry">
            <Array as="points">
              <mxPoint x="1660" y="598" />
            </Array>
          </mxGeometry>
        </mxCell>
        <mxCell id="74U5PATe-N2GAoOg3X0W-40" style="edgeStyle=orthogonalEdgeStyle;rounded=0;orthogonalLoop=1;jettySize=auto;html=1;" parent="1" source="74U5PATe-N2GAoOg3X0W-21" target="74U5PATe-N2GAoOg3X0W-36" edge="1">
          <mxGeometry relative="1" as="geometry">
            <Array as="points">
              <mxPoint x="1820" y="818" />
            </Array>
          </mxGeometry>
        </mxCell>
        <mxCell id="74U5PATe-N2GAoOg3X0W-41" value="Actor" style="shape=umlActor;verticalLabelPosition=bottom;verticalAlign=top;html=1;outlineConnect=0;" parent="1" vertex="1">
          <mxGeometry x="110" y="300" width="30" height="60" as="geometry" />
        </mxCell>
        <mxCell id="74U5PATe-N2GAoOg3X0W-42" value="&lt;h1 style=&quot;margin-top: 0px;&quot;&gt;НФТ&lt;/h1&gt;&lt;span style=&quot;background-color: initial;&quot;&gt;20к рпс&lt;/span&gt;&lt;br&gt;&lt;span style=&quot;background-color: initial;&quot;&gt;время ответа не более 200мс в 99%&lt;br&gt;&lt;/span&gt;&lt;span style=&quot;background-color: initial;&quot;&gt;доступность 99.95&lt;/span&gt;" style="text;html=1;whiteSpace=wrap;overflow=hidden;rounded=0;" parent="1" vertex="1">
          <mxGeometry x="40" y="40" width="240" height="120" as="geometry" />
        </mxCell>
      </root>
    </mxGraphModel>
  </diagram>
</mxfile>
